<svg xmlns="http://www.w3.org/2000/svg" width="512" height="512" viewBox="0 0 512 512">
  <rect width="512" height="512" fill="#0f172a"/>
  <defs>
    <linearGradient id="g" x1="0" y1="0" x2="1" y2="1">
      <stop offset="0%" stop-color="#2563eb"/>
      <stop offset="100%" stop-color="#0ea5e9"/>
    </linearGradient>
  </defs>
  <circle cx="256" cy="256" r="150" fill="url(#g)"/>
  <path d="M256 180c-3.6 0-6.6 1.4-6.6 3.4v10.4c-14.4 2.6-23.6 11.6-23.6 23.6 0 15.6 13 21.4 30.8 25.8 13.4 3.4 17 7 17 12.2 0 6.4-6.2 10.8-17 10.8-12.4 0-18-5.6-18.6-13.2h-14.4c.8 14 11.2 22.2 24.2 24.8v10.4c0 2 3 3.4 6.6 3.4s6.6-1.4 6.6-3.4v-10.4c13.2-2.4 23.6-10.2 23.6-22.8 0-18-15.6-24-30.8-28.4-13-3.4-17-7-17-11.6 0-6.8 6.2-11.8 17-11.8 11.4 0 15.8 5.4 16.2 11.8h14.4c-.8-12.2-8.6-21-23.6-24v-10.4c0-2-3-3.4-7-3.4z" fill="#fff"/>
</svg>
