<svg xmlns="http://www.w3.org/2000/svg" width="192" height="192" viewBox="0 0 192 192">
  <rect width="192" height="192" fill="#0f172a"/>
  <defs>
    <linearGradient id="g" x1="0" y1="0" x2="1" y2="1">
      <stop offset="0%" stop-color="#2563eb"/>
      <stop offset="100%" stop-color="#0ea5e9"/>
    </linearGradient>
  </defs>
  <circle cx="96" cy="96" r="56" fill="url(#g)"/>
  <path d="M96 68c-1.4 0-2.6.6-2.6 1.4v4c-5.6 1-9.2 4.6-9.2 9.2 0 6 5 8.4 12 10 5.2 1.4 6.6 2.8 6.6 4.8 0 2.4-2.4 4.2-6.6 4.2-4.8 0-7-2.2-7.2-5.2h-5.6c.4 5.4 4.4 8.6 9.4 9.6v4c0 .8 1.2 1.4 2.6 1.4s2.6-.6 2.6-1.4v-4c5.2-1 9.2-4 9.2-8.8 0-7-6-9.4-12-11-5-1.4-6.6-2.8-6.6-4.6 0-2.6 2.4-4.6 6.6-4.6 4.4 0 6 2.2 6.2 4.6h5.6c-.4-4.8-3.4-8.2-9.2-9.4v-4c0-.8-1.2-1.4-2.8-1.4z" fill="#fff"/>
</svg>
