<svg xmlns="http://www.w3.org/2000/svg" width="192" height="192" viewBox="0 0 192 192">
  <rect width="192" height="192" rx="24" fill="#0f172a"/>
  <defs>
    <linearGradient id="g" x1="0" y1="0" x2="1" y2="1">
      <stop offset="0%" stop-color="#2563eb"/>
      <stop offset="100%" stop-color="#0ea5e9"/>
    </linearGradient>
  </defs>
  <rect x="40" y="40" width="112" height="112" rx="24" fill="url(#g)"/>
  <path d="M96 58c-2.2 0-4 .8-4 2v6c-8.4 1.6-14 7-14 14 0 9 7.6 12.6 18 15.2 8 2 10 4.2 10 7.2 0 3.8-3.6 6.6-10 6.6-7.4 0-10.6-3.4-11-7.8h-8.4c.5 8.2 6.6 13 14.4 14.6v6c0 1.2 1.8 2 4 2s4-.8 4-2v-6c7.8-1.4 14-6 14-13.4 0-10.6-9-14.2-18-16.6-7.6-2-10-4-10-6.8 0-4 3.6-7 10-7 6.6 0 9.2 3.2 9.6 7h8.4c-.4-7.2-5-12.4-14-14V60c0-1.2-1.8-2-4-2z" fill="#fff"/>
</svg>
