<svg xmlns="http://www.w3.org/2000/svg" width="512" height="512" viewBox="0 0 512 512">
  <rect width="512" height="512" rx="64" fill="#0f172a"/>
  <defs>
    <linearGradient id="g" x1="0" y1="0" x2="1" y2="1">
      <stop offset="0%" stop-color="#2563eb"/>
      <stop offset="100%" stop-color="#0ea5e9"/>
    </linearGradient>
  </defs>
  <rect x="96" y="96" width="320" height="320" rx="64" fill="url(#g)"/>
  <path d="M256 148c-5.6 0-10 2-10 5v16c-22 4-36 18-36 36 0 24 20 33 48 40 20 5 26 11 26 19 0 10-10 17-26 17-20 0-28-9-29-20h-22c1.2 22 17.4 34 38 38v16c0 3 4.4 5 10 5s10-2 10-5v-16c20-3.6 36-15.4 36-35 0-28-24-37-48-44-20-5.2-26-10.4-26-17.6 0-10.4 9.4-18 26-18 17.2 0 24.2 8.2 25.2 18h22c-1-18.8-13.4-32.4-37-36v-16c0-3-4.4-5-10-5z" fill="#fff"/>
</svg>
